<?xml version="1.0" encoding="UTF-8"?>
<svg id="Layer_1" data-name="Layer 1" xmlns="http://www.w3.org/2000/svg" viewBox="0 0 270.63 270.61">
  <defs>
    <style>
      .cls-1 {
        fill: #3baac2;
      }

      .cls-1, .cls-2 {
        stroke-width: 0px;
      }

      .cls-2 {
        fill: #fff;
      }
    </style>
  </defs>
  <path class="cls-1" d="M270.61,29.62c0-2.42-.27-4.83-.83-7.19C266.77,9.74,255.38.01,241.35,0,170.64,0,99.94,0,29.24.01c-1.31,0-2.63.07-3.93.25C11.55,2.13.05,13.86.04,29.07,0,99.89.03,170.71,0,241.54c0,2.26.33,4.44.84,6.61,2.78,11.92,13.59,22.44,28.66,22.45,35.47.03,70.94.01,106.41.01s69.9,0,104.85-.01c1.44,0,2.88-.07,4.31-.26,14.33-1.91,25.55-13.85,25.55-29.33.02-70.46.01-140.93,0-211.39Z"/>
  <path class="cls-2" d="M76.58,137.43c-3.73-7.08-6.1-14.66-8.08-22.37-.23-.88-.44-1.16-1.39-.9-1.93.52-2.4.27-3.35-1.47-1.76-3.22-3.52-6.45-5.27-9.68-1.07-1.97-.86-3.36.76-4.94.64-.63,1.42-1.02,2.23-1.37,23.53-10.08,47.05-20.15,70.58-30.23.4-.17.8-.43,1.22-.47,2-.21,3.36-.1,3.38,2.67.03,3.51-.05,7.03.23,9.1.36,6.09.75,10.74,1.25,15.38.25,2.36.3,4.75.55,7.11.31,3.03.69,6.06,1.12,9.08.13.92-.12,1.33-.96,1.71-20.13,8.98-40.25,17.98-60.36,27.01-.99.45-1.42.31-1.92-.64Z"/>
  <path class="cls-2" d="M93.64,166.37c-4.37-5.88-8.27-12.05-11.77-18.49-.43-.8-.34-1.11.49-1.49,19.47-8.69,38.93-17.4,58.39-26.12.58-.26.91-.43,1.15.45,1.74,6.39,3.3,12.84,5.59,19.07.04.11.07.23.11.36.04.54-.45.59-.78.76-4.62,2.37-9.24,4.74-13.86,7.09-12.34,6.29-24.7,12.57-37.02,18.9-1.07.55-1.59.41-2.29-.54Z"/>
  <path class="cls-2" d="M231.1,189.51c-1.86.73-3.71,1.47-5.58,2.17-.52.19-.76.43-.71,1.04.1,1.16-.57,1.88-1.58,2.29-1.89.76-3.79,1.5-5.7,2.19-1.32.48-2.45-.11-2.78-1.5-.2-.85-.52-.83-1.21-.56-8.76,3.54-17.78,6.22-27.05,8-3.11.6-6.27.97-9.42,1.34-5.57.65-11.14.48-16.71.35-3.16-.08-6.33-.59-9.44-1.19-7.42-1.43-14.6-3.67-21.43-6.97-8.93-4.32-16.89-10.01-23.99-16.92-1.62-1.58-3.28-3.14-4.79-4.97,3.9-1.99,7.69-3.94,11.49-5.88,12.66-6.46,25.34-12.89,37.98-19.39,1.09-.56,1.46-.36,2.01.68,5.29,10.11,12.26,18.78,21.98,25.01,6.23,4,13.03,6.51,20.3,7.87,4.65.87,9.32.97,14.02.92,1.03-.01,2.06-.2,3.09-.24.7-.03.75-.35.65-.94-.3-1.83-.28-1.83,1.43-2.51,1.41-.56,2.83-1.1,4.24-1.66.71-.28,1.45-.34,2.05.15.5.39.91.33,1.42.12,1.48-.59,2.97-1.17,4.47-1.73,1.27-.47,2.15-.18,2.89.94,1.37,2.07,2.74,4.13,4.07,6.22,1.43,2.24.78,4.19-1.7,5.16Z"/>
</svg>